<?xml version="1.0" standalone="no"?>
<!DOCTYPE svg PUBLIC "-//W3C//DTD SVG 20010904//EN"
 "http://www.w3.org/TR/2001/REC-SVG-20010904/DTD/svg10.dtd">
<svg version="1.0" xmlns="http://www.w3.org/2000/svg"
 width="221.000000pt" height="83.000000pt" viewBox="0 0 221.000000 83.000000"
 preserveAspectRatio="xMidYMid meet">

<g transform="translate(0.000000,83.000000) scale(0.100000,-0.100000)"
fill="#000000" stroke="none">
<path d="M1270 749 c-17 -30 -4 -68 25 -75 34 -8 53 1 67 32 11 23 10 28 -11
45 -31 25 -67 24 -81 -2z"/>
<path d="M435 740 c-71 -28 -104 -80 -50 -80 l25 0 0 -235 0 -235 200 0 200 0
0 40 c0 41 2 43 51 54 14 3 43 22 65 41 34 31 39 33 45 18 11 -29 48 -62 75
-69 14 -4 45 -4 70 0 l44 6 0 -70 c0 -65 -2 -71 -25 -82 -27 -12 -55 2 -55 28
0 20 -80 68 -92 56 -21 -21 -20 -95 1 -129 36 -58 146 -69 210 -22 44 32 51
69 51 266 0 104 4 174 10 178 6 4 10 -43 10 -134 l0 -141 55 0 55 0 1 53 c1
48 1 50 11 23 9 -25 14 -27 40 -22 17 3 43 6 59 6 l29 0 0 83 c0 90 15 132 45
132 27 0 54 -80 55 -162 l0 -63 54 0 55 0 7 46 c8 57 -2 147 -21 184 -18 35
-69 78 -101 86 -13 4 -45 1 -70 -5 -25 -6 -50 -8 -57 -4 -6 4 -31 6 -55 4 -26
-2 -48 2 -52 9 -5 8 -22 5 -61 -9 -49 -19 -55 -20 -66 -5 -10 14 -14 14 -42 0
-16 -9 -48 -16 -71 -16 -47 0 -105 -22 -137 -52 l-22 -21 -12 26 c-23 50 -123
76 -181 46 -38 -19 -79 -62 -94 -99 -17 -40 -12 -106 11 -136 8 -11 15 -22 15
-26 0 -5 -45 -8 -100 -8 l-100 0 0 230 c0 261 6 245 -85 210z m435 -206 c0 -3
-5 -14 -10 -25 -15 -27 11 -35 44 -14 30 20 33 10 12 -40 -18 -41 -57 -55 -95
-34 -39 22 -39 60 -1 93 30 25 50 33 50 20z m270 -30 c0 -15 7 -32 16 -39 26
-19 9 -55 -26 -55 -59 0 -78 54 -34 95 34 32 44 31 44 -1z"/>
</g>
</svg>
