<?xml version="1.0" standalone="no"?>
<!DOCTYPE svg PUBLIC "-//W3C//DTD SVG 20010904//EN"
 "http://www.w3.org/TR/2001/REC-SVG-20010904/DTD/svg10.dtd">
<svg version="1.0" xmlns="http://www.w3.org/2000/svg"
 width="342.000000pt" height="148.000000pt" viewBox="0 0 342.000000 148.000000"
 preserveAspectRatio="xMidYMid meet">

<g transform="translate(0.000000,148.000000) scale(0.100000,-0.100000)"
fill="#000000" stroke="none">
<path d="M2941 1394 l-93 -44 4 -111 3 -112 -89 6 -89 6 7 -45 6 -44 -53 0
-53 0 -12 -117 c-12 -125 -41 -230 -72 -258 -23 -21 -34 -14 -63 38 -20 38
-22 58 -24 202 l-2 160 -93 12 c-157 19 -145 23 -153 -52 l-7 -65 -27 26 c-49
50 -149 77 -228 63 -65 -13 -120 -42 -175 -97 l-48 -46 0 102 c0 56 -4 102 -9
102 -5 0 -35 -12 -67 -27 -48 -23 -74 -28 -140 -28 -97 -1 -163 -29 -237 -99
l-47 -45 -15 29 c-56 108 -220 146 -350 79 -58 -30 -134 -107 -158 -159 -36
-81 -25 -221 24 -292 11 -14 19 -28 19 -30 0 -4 -333 12 -338 17 -2 2 -15 191
-28 421 -13 229 -25 419 -28 421 -2 2 -57 -18 -122 -45 l-119 -50 -14 -56 c-7
-31 -12 -59 -9 -61 2 -3 18 -1 35 4 l30 9 6 -77 c3 -42 14 -232 23 -423 l18
-348 25 0 c14 0 145 -7 291 -15 146 -8 295 -15 333 -15 l67 0 0 74 0 73 45 6
c65 9 121 42 182 104 45 46 54 51 60 36 18 -49 65 -102 110 -123 39 -18 59
-21 118 -17 38 3 80 8 92 12 23 7 23 7 23 -104 0 -125 -12 -151 -71 -151 -44
0 -66 15 -74 51 -6 25 -22 41 -84 80 l-76 49 -12 -27 c-44 -102 -36 -207 21
-267 60 -63 200 -94 296 -65 49 15 129 75 152 114 20 36 38 172 38 300 0 82 1
88 15 68 8 -11 36 -31 62 -43 62 -29 165 -25 233 10 53 27 141 115 159 159
l13 31 28 -59 c31 -66 73 -103 150 -132 166 -63 315 -14 394 130 30 56 56 162
56 234 0 43 2 47 25 47 14 0 25 -6 25 -12 3 -108 22 -275 36 -303 35 -75 142
-135 240 -135 209 0 318 150 237 329 l-18 41 -77 -51 c-54 -34 -78 -56 -78
-69 0 -53 -88 -81 -125 -40 -22 24 -31 111 -20 195 l6 55 80 0 79 0 0 95 0 95
-75 0 -75 0 0 160 c0 122 -3 160 -12 159 -7 0 -55 -20 -107 -45z m-1974 -442
c-30 -31 -35 -73 -11 -92 22 -19 64 -2 91 39 l23 34 0 -44 c0 -61 -35 -119
-82 -137 -35 -13 -41 -13 -85 9 -74 37 -83 95 -25 159 21 24 82 57 111 60 3 0
-7 -13 -22 -28z m1000 0 c-30 -31 -35 -73 -11 -92 22 -19 64 -2 91 39 l23 34
0 -44 c0 -61 -35 -119 -82 -137 -35 -13 -41 -13 -85 9 -74 37 -83 95 -25 159
21 24 82 57 111 60 3 0 -7 -13 -22 -28z m-501 -29 c-1 -42 2 -48 22 -51 20 -3
22 -9 22 -58 0 -49 -2 -54 -25 -60 -59 -15 -128 20 -141 70 -8 35 23 93 65
122 50 34 57 31 57 -23z"/>
</g>
</svg>
