<?xml version="1.0" standalone="no"?>
<!DOCTYPE svg PUBLIC "-//W3C//DTD SVG 20010904//EN"
 "http://www.w3.org/TR/2001/REC-SVG-20010904/DTD/svg10.dtd">
<svg version="1.0" xmlns="http://www.w3.org/2000/svg"
 width="211.000000pt" height="87.000000pt" viewBox="0 0 211.000000 87.000000"
 preserveAspectRatio="xMidYMid meet">

<g transform="translate(0.000000,87.000000) scale(0.100000,-0.100000)"
fill="#000000" stroke="none">
<path d="M527 802 c-10 -10 -17 -24 -17 -30 0 -15 -5 -15 -87 4 -40 9 -94 14
-132 12 -57 -4 -67 -8 -92 -36 -37 -41 -38 -86 -3 -138 31 -48 60 -73 147
-130 70 -46 76 -54 53 -73 -16 -13 -118 10 -178 40 l-36 19 -20 -60 c-12 -33
-18 -61 -14 -64 43 -24 158 -50 220 -51 72 0 74 1 108 37 39 43 43 73 15 133
-23 49 -54 79 -138 130 -75 45 -94 68 -75 87 15 15 117 -4 175 -33 43 -23 47
-21 63 24 9 27 16 32 43 32 57 0 80 57 39 95 -27 25 -50 26 -71 2z"/>
<path d="M557 630 c-62 -24 -77 -37 -77 -66 0 -17 6 -24 20 -24 19 0 20 -7 20
-135 l0 -135 55 0 55 0 0 45 c0 43 12 60 23 32 10 -27 75 -49 122 -41 l45 6 0
-59 c0 -33 -5 -64 -12 -71 -20 -20 -47 -13 -62 16 -18 34 -82 70 -97 55 -20
-20 -22 -88 -4 -122 28 -55 130 -80 193 -47 60 32 75 59 80 151 4 84 5 85 31
85 14 0 43 3 63 6 l36 6 -1 82 c-2 64 2 88 16 110 10 15 24 26 30 23 20 -6 46
-98 47 -164 l0 -63 59 0 59 0 7 42 7 42 15 -28 c17 -32 102 -76 148 -76 41 0
109 33 129 61 15 22 16 15 16 -124 l0 -147 65 0 65 0 0 109 0 109 36 7 c55 10
121 81 129 139 17 110 -30 170 -134 170 -36 1 -60 6 -67 15 -10 13 -20 12 -69
-7 -31 -12 -69 -22 -84 -22 -27 0 -28 -3 -34 -58 -8 -78 -28 -136 -48 -140
-27 -5 -51 71 -47 148 l3 65 -60 6 c-67 8 -75 3 -75 -48 0 -18 -3 -33 -7 -33
-3 0 -21 18 -40 40 -39 46 -83 58 -150 43 -26 -6 -46 -7 -49 -1 -3 5 -26 6
-50 2 -29 -4 -44 -3 -44 4 0 7 -14 5 -37 -5 -21 -8 -61 -17 -89 -18 -51 -2
-87 -19 -136 -64 l-28 -25 0 62 c0 70 -1 71 -73 42z m1187 -79 c-8 -37 10 -48
41 -27 24 16 25 15 25 -4 0 -24 -42 -70 -63 -70 -23 0 -67 40 -67 60 0 15 51
70 66 70 2 0 1 -13 -2 -29z m-944 -11 c0 -11 5 -29 12 -39 26 -42 -15 -67 -60
-35 -29 20 -28 39 3 69 29 30 45 32 45 5z"/>
</g>
</svg>
