<?xml version="1.0" standalone="no"?>
<!DOCTYPE svg PUBLIC "-//W3C//DTD SVG 20010904//EN"
 "http://www.w3.org/TR/2001/REC-SVG-20010904/DTD/svg10.dtd">
<svg version="1.0" xmlns="http://www.w3.org/2000/svg"
 width="243.000000pt" height="71.000000pt" viewBox="0 0 243.000000 71.000000"
 preserveAspectRatio="xMidYMid meet">

<g transform="translate(0.000000,71.000000) scale(0.100000,-0.100000)"
fill="#000000" stroke="none">
<path d="M1254 666 c-60 -27 -67 -117 -9 -132 31 -8 82 12 95 37 18 32 12 77
-12 93 -27 19 -34 19 -74 2z"/>
<path d="M30 579 l0 -61 65 4 65 4 -1 -31 c0 -16 -10 -121 -22 -233 l-23 -202
67 0 66 0 12 172 c6 95 14 201 18 236 l6 62 68 0 69 0 0 55 0 55 -195 0 -195
0 0 -61z"/>
<path d="M825 494 c-37 -25 -74 -62 -75 -76 0 -3 18 -9 40 -13 28 -5 46 -2 62
9 12 9 42 16 65 16 48 0 67 -20 79 -80 7 -32 6 -33 -17 -25 -13 4 -56 9 -95
12 -57 4 -77 2 -98 -12 -58 -38 -72 -114 -31 -163 36 -43 75 -56 151 -49 60 4
65 3 61 -14 -4 -15 5 -20 57 -32 l61 -14 16 51 c40 124 32 277 -18 337 -65 76
-187 102 -258 53z m146 -224 c26 -15 24 -35 -7 -59 -30 -23 -74 -27 -92 -9
-15 15 -15 51 0 66 15 15 72 16 99 2z"/>
<path d="M1855 501 c-93 -24 -147 -84 -153 -169 -5 -79 18 -119 88 -154 60
-31 96 -34 163 -14 44 13 137 72 137 87 0 4 -18 21 -39 38 l-39 31 -38 -25
c-20 -14 -46 -25 -57 -25 -23 0 -29 -10 67 102 32 37 56 74 53 81 -13 34 -124
63 -182 48z m70 -75 c18 -13 16 -17 -39 -85 -32 -39 -60 -71 -62 -71 -9 0 -34
62 -34 85 0 60 87 106 135 71z"/>
<path d="M1196 453 c-8 -54 -36 -331 -36 -360 0 -25 1 -25 58 -18 31 4 58 8
60 9 1 2 6 63 12 137 5 74 12 159 15 190 6 56 5 56 -23 62 -17 3 -41 9 -55 12
-23 6 -25 3 -31 -32z"/>
<path d="M1484 454 l-34 -36 -6 31 c-4 17 -9 31 -13 31 -18 0 -81 -22 -81 -28
1 -38 39 -354 43 -358 3 -3 22 -2 42 2 l37 7 -7 96 c-6 78 -4 104 10 138 16
40 38 59 56 48 18 -12 29 -84 29 -194 l0 -113 31 6 c17 3 42 6 55 6 l24 0 0
128 c-1 155 -17 215 -69 249 -48 33 -78 29 -117 -13z"/>
<path d="M443 473 c-22 -4 -23 -7 -23 -137 0 -73 3 -154 6 -180 7 -45 7 -46
44 -46 l38 0 4 103 c5 118 23 167 62 167 26 0 36 -17 36 -61 0 -32 14 -36 79
-23 27 6 31 10 31 41 0 51 -25 100 -62 123 -48 29 -76 25 -114 -16 l-34 -35 0
35 c0 38 -6 41 -67 29z"/>
<path d="M2123 473 c-22 -4 -23 -7 -23 -137 0 -73 3 -154 6 -180 7 -45 7 -46
44 -46 l38 0 4 103 c5 118 23 167 62 167 26 0 36 -17 36 -61 0 -32 14 -36 79
-23 27 6 31 10 31 41 0 51 -25 100 -62 123 -48 29 -76 25 -114 -16 l-34 -35 0
35 c0 38 -6 41 -67 29z"/>
</g>
</svg>
